# xmcd
#
# Track frame offsets:
#	172
#	23222
#	36800
#	55525
#	71672
#	93072
#	110165
#	126475
#	148235
#	162715
#	179655
#
# Disc length: 2749 seconds
#
# Revision: 0
# Processed by: cddbd v1.4PL0 Copyright (c) Steve Scherf et al.
# Submitted via: dBpowerAMP V4.0
#
DISCID=a40abb0b
DTITLE=Duke La Rue and the Blue Jukes - One O'Clock in the Morning
DYEAR=1900
DGENRE=Blues
TTITLE0=The Thrill is Gone
TTITLE1=The Stumble
TTITLE2=Games People Play
TTITLE3=Where Did You Sleep Last Night
TTITLE4=Telephone Blues
TTITLE5=You Upset Me Baby
TTITLE6=Why Treat Me So Mean?
TTITLE7=To Love a Little Longer
TTITLE8=Crossroads
TTITLE9=Strange Kinda Boogie
TTITLE10=One A.M. Blues
EXTD=THE definitive slide guitar cover of Crossroads!
EXTT0=
EXTT1=
EXTT2=
EXTT3=
EXTT4=
EXTT5=
EXTT6=
EXTT7=
EXTT8=
EXTT9=
EXTT10=
PLAYORDER=
